<svg xmlns="http://www.w3.org/2000/svg" viewBox="0 0 32 32" width="22" height="22">
  <!-- Outer ring arcs — gaps at N/E/S/W -->
  <path d="M 16,4 A 12,12 0 0 1 28,16" fill="none" stroke="#00ffe7" stroke-width="1.5" stroke-linecap="round"/>
  <path d="M 28,16 A 12,12 0 0 1 16,28" fill="none" stroke="#00ffe7" stroke-width="1.5" stroke-linecap="round"/>
  <path d="M 16,28 A 12,12 0 0 1 4,16"  fill="none" stroke="#00ffe7" stroke-width="1.5" stroke-linecap="round"/>
  <path d="M 4,16 A 12,12 0 0 1 16,4"   fill="none" stroke="#00ffe7" stroke-width="1.5" stroke-linecap="round"/>
  <!-- Crosshair arms -->
  <line x1="16" y1="1"  x2="16" y2="7"  stroke="#00ffe7" stroke-width="1" stroke-linecap="round" opacity="0.9"/>
  <line x1="16" y1="25" x2="16" y2="31" stroke="#00ffe7" stroke-width="1" stroke-linecap="round" opacity="0.9"/>
  <line x1="1"  y1="16" x2="7"  y2="16" stroke="#00ffe7" stroke-width="1" stroke-linecap="round" opacity="0.9"/>
  <line x1="25" y1="16" x2="31" y2="16" stroke="#00ffe7" stroke-width="1" stroke-linecap="round" opacity="0.9"/>
  <!-- Inner ring -->
  <circle cx="16" cy="16" r="4" fill="none" stroke="#00ffe7" stroke-width="1" opacity="0.6"/>
  <!-- Center dot -->
  <circle cx="16" cy="16" r="1.5" fill="#ff2d55"/>
</svg>
