<svg xmlns="http://www.w3.org/2000/svg"
     viewBox="0 0 208 272"
     width="208" height="272"
     shape-rendering="crispEdges">
  <rect x="48" y="0" width="16" height="16" fill="rgb(255,110,30)"/>
  <rect x="64" y="0" width="16" height="16" fill="rgb(255,210,140)"/>
  <rect x="80" y="0" width="16" height="16" fill="rgb(255,110,30)"/>
  <rect x="96" y="0" width="16" height="16" fill="rgb(255,210,140)"/>
  <rect x="112" y="0" width="16" height="16" fill="rgb(255,110,30)"/>
  <rect x="128" y="0" width="16" height="16" fill="rgb(255,210,140)"/>
  <rect x="144" y="0" width="16" height="16" fill="rgb(255,110,30)"/>
  <rect x="32" y="16" width="16" height="16" fill="rgb(255,110,30)"/>
  <rect x="48" y="16" width="16" height="16" fill="rgb(255,110,30)"/>
  <rect x="64" y="16" width="16" height="16" fill="rgb(255,110,30)"/>
  <rect x="80" y="16" width="16" height="16" fill="rgb(255,210,140)"/>
  <rect x="96" y="16" width="16" height="16" fill="rgb(255,110,30)"/>
  <rect x="112" y="16" width="16" height="16" fill="rgb(255,210,140)"/>
  <rect x="128" y="16" width="16" height="16" fill="rgb(255,110,30)"/>
  <rect x="144" y="16" width="16" height="16" fill="rgb(255,110,30)"/>
  <rect x="160" y="16" width="16" height="16" fill="rgb(255,110,30)"/>
  <rect x="16" y="32" width="16" height="16" fill="rgb(255,110,30)"/>
  <rect x="32" y="32" width="16" height="16" fill="rgb(255,110,30)"/>
  <rect x="48" y="32" width="16" height="16" fill="rgb(255,110,30)"/>
  <rect x="64" y="32" width="16" height="16" fill="rgb(255,110,30)"/>
  <rect x="80" y="32" width="16" height="16" fill="rgb(255,210,140)"/>
  <rect x="96" y="32" width="16" height="16" fill="rgb(255,110,30)"/>
  <rect x="112" y="32" width="16" height="16" fill="rgb(255,210,140)"/>
  <rect x="128" y="32" width="16" height="16" fill="rgb(255,110,30)"/>
  <rect x="144" y="32" width="16" height="16" fill="rgb(255,110,30)"/>
  <rect x="160" y="32" width="16" height="16" fill="rgb(255,110,30)"/>
  <rect x="176" y="32" width="16" height="16" fill="rgb(255,110,30)"/>
  <rect x="0" y="48" width="16" height="16" fill="rgb(255,110,30)"/>
  <rect x="16" y="48" width="16" height="16" fill="rgb(255,110,30)"/>
  <rect x="32" y="48" width="16" height="16" fill="rgb(255,110,30)"/>
  <rect x="48" y="48" width="16" height="16" fill="rgb(255,110,30)"/>
  <rect x="64" y="48" width="16" height="16" fill="rgb(255,110,30)"/>
  <rect x="80" y="48" width="16" height="16" fill="rgb(255,210,140)"/>
  <rect x="96" y="48" width="16" height="16" fill="rgb(255,110,30)"/>
  <rect x="112" y="48" width="16" height="16" fill="rgb(255,210,140)"/>
  <rect x="128" y="48" width="16" height="16" fill="rgb(255,110,30)"/>
  <rect x="144" y="48" width="16" height="16" fill="rgb(255,110,30)"/>
  <rect x="160" y="48" width="16" height="16" fill="rgb(255,110,30)"/>
  <rect x="176" y="48" width="16" height="16" fill="rgb(255,110,30)"/>
  <rect x="192" y="48" width="16" height="16" fill="rgb(255,110,30)"/>
  <rect x="0" y="64" width="16" height="16" fill="rgb(255,110,30)"/>
  <rect x="16" y="64" width="16" height="16" fill="rgb(255,110,30)"/>
  <rect x="32" y="64" width="16" height="16" fill="rgb(255,110,30)"/>
  <rect x="48" y="64" width="16" height="16" fill="rgb(255,110,30)"/>
  <rect x="64" y="64" width="16" height="16" fill="rgb(170,50,10)"/>
  <rect x="80" y="64" width="16" height="16" fill="rgb(255,245,60)"/>
  <rect x="96" y="64" width="16" height="16" fill="rgb(255,110,30)"/>
  <rect x="112" y="64" width="16" height="16" fill="rgb(255,245,60)"/>
  <rect x="128" y="64" width="16" height="16" fill="rgb(170,50,10)"/>
  <rect x="144" y="64" width="16" height="16" fill="rgb(255,110,30)"/>
  <rect x="160" y="64" width="16" height="16" fill="rgb(255,110,30)"/>
  <rect x="176" y="64" width="16" height="16" fill="rgb(255,110,30)"/>
  <rect x="192" y="64" width="16" height="16" fill="rgb(255,110,30)"/>
  <rect x="0" y="80" width="16" height="16" fill="rgb(255,110,30)"/>
  <rect x="16" y="80" width="16" height="16" fill="rgb(255,110,30)"/>
  <rect x="32" y="80" width="16" height="16" fill="rgb(255,110,30)"/>
  <rect x="48" y="80" width="16" height="16" fill="rgb(255,210,140)"/>
  <rect x="64" y="80" width="16" height="16" fill="rgb(255,110,30)"/>
  <rect x="80" y="80" width="16" height="16" fill="rgb(255,245,60)"/>
  <rect x="96" y="80" width="16" height="16" fill="rgb(255,210,140)"/>
  <rect x="112" y="80" width="16" height="16" fill="rgb(255,245,60)"/>
  <rect x="128" y="80" width="16" height="16" fill="rgb(255,110,30)"/>
  <rect x="144" y="80" width="16" height="16" fill="rgb(255,210,140)"/>
  <rect x="160" y="80" width="16" height="16" fill="rgb(255,110,30)"/>
  <rect x="176" y="80" width="16" height="16" fill="rgb(255,110,30)"/>
  <rect x="192" y="80" width="16" height="16" fill="rgb(255,110,30)"/>
  <rect x="0" y="96" width="16" height="16" fill="rgb(255,110,30)"/>
  <rect x="16" y="96" width="16" height="16" fill="rgb(255,110,30)"/>
  <rect x="32" y="96" width="16" height="16" fill="rgb(255,110,30)"/>
  <rect x="48" y="96" width="16" height="16" fill="rgb(255,110,30)"/>
  <rect x="64" y="96" width="16" height="16" fill="rgb(255,210,140)"/>
  <rect x="80" y="96" width="16" height="16" fill="rgb(255,110,30)"/>
  <rect x="96" y="96" width="16" height="16" fill="rgb(255,210,140)"/>
  <rect x="112" y="96" width="16" height="16" fill="rgb(255,110,30)"/>
  <rect x="128" y="96" width="16" height="16" fill="rgb(255,210,140)"/>
  <rect x="144" y="96" width="16" height="16" fill="rgb(255,110,30)"/>
  <rect x="160" y="96" width="16" height="16" fill="rgb(255,110,30)"/>
  <rect x="176" y="96" width="16" height="16" fill="rgb(255,110,30)"/>
  <rect x="192" y="96" width="16" height="16" fill="rgb(255,110,30)"/>
  <rect x="0" y="112" width="16" height="16" fill="rgb(255,110,30)"/>
  <rect x="16" y="112" width="16" height="16" fill="rgb(255,110,30)"/>
  <rect x="32" y="112" width="16" height="16" fill="rgb(255,110,30)"/>
  <rect x="48" y="112" width="16" height="16" fill="rgb(255,110,30)"/>
  <rect x="64" y="112" width="16" height="16" fill="rgb(255,110,30)"/>
  <rect x="80" y="112" width="16" height="16" fill="rgb(255,210,140)"/>
  <rect x="96" y="112" width="16" height="16" fill="rgb(255,110,30)"/>
  <rect x="112" y="112" width="16" height="16" fill="rgb(255,210,140)"/>
  <rect x="128" y="112" width="16" height="16" fill="rgb(255,110,30)"/>
  <rect x="144" y="112" width="16" height="16" fill="rgb(255,110,30)"/>
  <rect x="160" y="112" width="16" height="16" fill="rgb(255,110,30)"/>
  <rect x="176" y="112" width="16" height="16" fill="rgb(255,110,30)"/>
  <rect x="192" y="112" width="16" height="16" fill="rgb(255,110,30)"/>
  <rect x="0" y="128" width="16" height="16" fill="rgb(255,110,30)"/>
  <rect x="16" y="128" width="16" height="16" fill="rgb(255,110,30)"/>
  <rect x="32" y="128" width="16" height="16" fill="rgb(255,110,30)"/>
  <rect x="48" y="128" width="16" height="16" fill="rgb(80,20,5)"/>
  <rect x="64" y="128" width="16" height="16" fill="rgb(255,110,30)"/>
  <rect x="80" y="128" width="16" height="16" fill="rgb(255,210,140)"/>
  <rect x="96" y="128" width="16" height="16" fill="rgb(255,110,30)"/>
  <rect x="112" y="128" width="16" height="16" fill="rgb(255,210,140)"/>
  <rect x="128" y="128" width="16" height="16" fill="rgb(255,110,30)"/>
  <rect x="144" y="128" width="16" height="16" fill="rgb(80,20,5)"/>
  <rect x="160" y="128" width="16" height="16" fill="rgb(255,110,30)"/>
  <rect x="176" y="128" width="16" height="16" fill="rgb(255,110,30)"/>
  <rect x="192" y="128" width="16" height="16" fill="rgb(255,110,30)"/>
  <rect x="0" y="144" width="16" height="16" fill="rgb(255,210,140)"/>
  <rect x="16" y="144" width="16" height="16" fill="rgb(255,110,30)"/>
  <rect x="32" y="144" width="16" height="16" fill="rgb(255,110,30)"/>
  <rect x="48" y="144" width="16" height="16" fill="rgb(255,110,30)"/>
  <rect x="64" y="144" width="16" height="16" fill="rgb(255,110,30)"/>
  <rect x="80" y="144" width="16" height="16" fill="rgb(255,210,140)"/>
  <rect x="96" y="144" width="16" height="16" fill="rgb(255,110,30)"/>
  <rect x="112" y="144" width="16" height="16" fill="rgb(255,210,140)"/>
  <rect x="128" y="144" width="16" height="16" fill="rgb(255,110,30)"/>
  <rect x="144" y="144" width="16" height="16" fill="rgb(255,110,30)"/>
  <rect x="160" y="144" width="16" height="16" fill="rgb(255,110,30)"/>
  <rect x="176" y="144" width="16" height="16" fill="rgb(255,110,30)"/>
  <rect x="192" y="144" width="16" height="16" fill="rgb(255,210,140)"/>
  <rect x="0" y="160" width="16" height="16" fill="rgb(255,110,30)"/>
  <rect x="16" y="160" width="16" height="16" fill="rgb(255,110,30)"/>
  <rect x="32" y="160" width="16" height="16" fill="rgb(255,110,30)"/>
  <rect x="48" y="160" width="16" height="16" fill="rgb(255,110,30)"/>
  <rect x="64" y="160" width="16" height="16" fill="rgb(255,110,30)"/>
  <rect x="80" y="160" width="16" height="16" fill="rgb(255,210,140)"/>
  <rect x="96" y="160" width="16" height="16" fill="rgb(255,110,30)"/>
  <rect x="112" y="160" width="16" height="16" fill="rgb(255,210,140)"/>
  <rect x="128" y="160" width="16" height="16" fill="rgb(255,110,30)"/>
  <rect x="144" y="160" width="16" height="16" fill="rgb(255,110,30)"/>
  <rect x="160" y="160" width="16" height="16" fill="rgb(255,110,30)"/>
  <rect x="176" y="160" width="16" height="16" fill="rgb(255,110,30)"/>
  <rect x="192" y="160" width="16" height="16" fill="rgb(255,110,30)"/>
  <rect x="0" y="176" width="16" height="16" fill="rgb(255,110,30)"/>
  <rect x="16" y="176" width="16" height="16" fill="rgb(255,110,30)"/>
  <rect x="32" y="176" width="16" height="16" fill="rgb(80,20,5)"/>
  <rect x="48" y="176" width="16" height="16" fill="rgb(255,110,30)"/>
  <rect x="64" y="176" width="16" height="16" fill="rgb(255,110,30)"/>
  <rect x="80" y="176" width="16" height="16" fill="rgb(255,210,140)"/>
  <rect x="96" y="176" width="16" height="16" fill="rgb(255,110,30)"/>
  <rect x="112" y="176" width="16" height="16" fill="rgb(255,210,140)"/>
  <rect x="128" y="176" width="16" height="16" fill="rgb(255,110,30)"/>
  <rect x="144" y="176" width="16" height="16" fill="rgb(255,110,30)"/>
  <rect x="160" y="176" width="16" height="16" fill="rgb(80,20,5)"/>
  <rect x="176" y="176" width="16" height="16" fill="rgb(255,110,30)"/>
  <rect x="192" y="176" width="16" height="16" fill="rgb(255,110,30)"/>
  <rect x="0" y="192" width="16" height="16" fill="rgb(255,110,30)"/>
  <rect x="16" y="192" width="16" height="16" fill="rgb(255,110,30)"/>
  <rect x="32" y="192" width="16" height="16" fill="rgb(170,50,10)"/>
  <rect x="48" y="192" width="16" height="16" fill="rgb(255,110,30)"/>
  <rect x="64" y="192" width="16" height="16" fill="rgb(255,110,30)"/>
  <rect x="80" y="192" width="16" height="16" fill="rgb(255,210,140)"/>
  <rect x="96" y="192" width="16" height="16" fill="rgb(255,110,30)"/>
  <rect x="112" y="192" width="16" height="16" fill="rgb(255,210,140)"/>
  <rect x="128" y="192" width="16" height="16" fill="rgb(255,110,30)"/>
  <rect x="144" y="192" width="16" height="16" fill="rgb(255,110,30)"/>
  <rect x="160" y="192" width="16" height="16" fill="rgb(170,50,10)"/>
  <rect x="176" y="192" width="16" height="16" fill="rgb(255,110,30)"/>
  <rect x="192" y="192" width="16" height="16" fill="rgb(255,110,30)"/>
  <rect x="16" y="208" width="16" height="16" fill="rgb(255,110,30)"/>
  <rect x="32" y="208" width="16" height="16" fill="rgb(170,50,10)"/>
  <rect x="48" y="208" width="16" height="16" fill="rgb(255,110,30)"/>
  <rect x="64" y="208" width="16" height="16" fill="rgb(255,110,30)"/>
  <rect x="80" y="208" width="16" height="16" fill="rgb(255,210,140)"/>
  <rect x="96" y="208" width="16" height="16" fill="rgb(255,110,30)"/>
  <rect x="112" y="208" width="16" height="16" fill="rgb(255,210,140)"/>
  <rect x="128" y="208" width="16" height="16" fill="rgb(255,110,30)"/>
  <rect x="144" y="208" width="16" height="16" fill="rgb(255,110,30)"/>
  <rect x="160" y="208" width="16" height="16" fill="rgb(170,50,10)"/>
  <rect x="176" y="208" width="16" height="16" fill="rgb(255,110,30)"/>
  <rect x="32" y="224" width="16" height="16" fill="rgb(255,110,30)"/>
  <rect x="48" y="224" width="16" height="16" fill="rgb(255,110,30)"/>
  <rect x="64" y="224" width="16" height="16" fill="rgb(255,110,30)"/>
  <rect x="96" y="224" width="16" height="16" fill="rgb(255,110,30)"/>
  <rect x="128" y="224" width="16" height="16" fill="rgb(255,110,30)"/>
  <rect x="144" y="224" width="16" height="16" fill="rgb(255,110,30)"/>
  <rect x="160" y="224" width="16" height="16" fill="rgb(255,110,30)"/>
  <rect x="48" y="240" width="16" height="16" fill="rgb(80,20,5)"/>
  <rect x="64" y="240" width="16" height="16" fill="rgb(255,110,30)"/>
  <rect x="96" y="240" width="16" height="16" fill="rgb(255,110,30)"/>
  <rect x="128" y="240" width="16" height="16" fill="rgb(255,110,30)"/>
  <rect x="144" y="240" width="16" height="16" fill="rgb(80,20,5)"/>
  <rect x="64" y="256" width="16" height="16" fill="rgb(255,110,30)"/>
  <rect x="128" y="256" width="16" height="16" fill="rgb(255,110,30)"/>
</svg>