<svg xmlns="http://www.w3.org/2000/svg"
     viewBox="0 0 336 240"
     width="56" height="40"
     shape-rendering="crispEdges">
  <rect x="144" y="0" width="16" height="16" fill="rgb(100,210,255)"/>
  <rect x="160" y="0" width="16" height="16" fill="rgb(255,200,50)"/>
  <rect x="176" y="0" width="16" height="16" fill="rgb(100,210,255)"/>
  <rect x="128" y="16" width="16" height="16" fill="rgb(100,210,255)"/>
  <rect x="144" y="16" width="16" height="16" fill="rgb(150,225,255)"/>
  <rect x="160" y="16" width="16" height="16" fill="rgb(255,200,50)"/>
  <rect x="176" y="16" width="16" height="16" fill="rgb(150,225,255)"/>
  <rect x="192" y="16" width="16" height="16" fill="rgb(100,210,255)"/>
  <rect x="112" y="32" width="16" height="16" fill="rgb(100,210,255)"/>
  <rect x="128" y="32" width="16" height="16" fill="rgb(100,210,255)"/>
  <rect x="144" y="32" width="16" height="16" fill="rgb(100,210,255)"/>
  <rect x="160" y="32" width="16" height="16" fill="rgb(255,200,50)"/>
  <rect x="176" y="32" width="16" height="16" fill="rgb(100,210,255)"/>
  <rect x="192" y="32" width="16" height="16" fill="rgb(100,210,255)"/>
  <rect x="208" y="32" width="16" height="16" fill="rgb(100,210,255)"/>
  <rect x="96" y="48" width="16" height="16" fill="rgb(35,80,160)"/>
  <rect x="112" y="48" width="16" height="16" fill="rgb(100,210,255)"/>
  <rect x="128" y="48" width="16" height="16" fill="rgb(100,210,255)"/>
  <rect x="144" y="48" width="16" height="16" fill="rgb(100,210,255)"/>
  <rect x="160" y="48" width="16" height="16" fill="rgb(255,200,50)"/>
  <rect x="176" y="48" width="16" height="16" fill="rgb(100,210,255)"/>
  <rect x="192" y="48" width="16" height="16" fill="rgb(100,210,255)"/>
  <rect x="208" y="48" width="16" height="16" fill="rgb(100,210,255)"/>
  <rect x="224" y="48" width="16" height="16" fill="rgb(35,80,160)"/>
  <rect x="80" y="64" width="16" height="16" fill="rgb(20,50,110)"/>
  <rect x="96" y="64" width="16" height="16" fill="rgb(100,210,255)"/>
  <rect x="112" y="64" width="16" height="16" fill="rgb(100,210,255)"/>
  <rect x="128" y="64" width="16" height="16" fill="rgb(100,210,255)"/>
  <rect x="144" y="64" width="16" height="16" fill="rgb(210,245,255)"/>
  <rect x="160" y="64" width="16" height="16" fill="rgb(255,200,50)"/>
  <rect x="176" y="64" width="16" height="16" fill="rgb(210,245,255)"/>
  <rect x="192" y="64" width="16" height="16" fill="rgb(100,210,255)"/>
  <rect x="208" y="64" width="16" height="16" fill="rgb(100,210,255)"/>
  <rect x="224" y="64" width="16" height="16" fill="rgb(100,210,255)"/>
  <rect x="240" y="64" width="16" height="16" fill="rgb(20,50,110)"/>
  <rect x="64" y="80" width="16" height="16" fill="rgb(20,50,110)"/>
  <rect x="80" y="80" width="16" height="16" fill="rgb(100,210,255)"/>
  <rect x="96" y="80" width="16" height="16" fill="rgb(100,210,255)"/>
  <rect x="112" y="80" width="16" height="16" fill="rgb(100,210,255)"/>
  <rect x="128" y="80" width="16" height="16" fill="rgb(100,210,255)"/>
  <rect x="144" y="80" width="16" height="16" fill="rgb(210,245,255)"/>
  <rect x="160" y="80" width="16" height="16" fill="rgb(255,200,50)"/>
  <rect x="176" y="80" width="16" height="16" fill="rgb(210,245,255)"/>
  <rect x="192" y="80" width="16" height="16" fill="rgb(100,210,255)"/>
  <rect x="208" y="80" width="16" height="16" fill="rgb(100,210,255)"/>
  <rect x="224" y="80" width="16" height="16" fill="rgb(100,210,255)"/>
  <rect x="240" y="80" width="16" height="16" fill="rgb(100,210,255)"/>
  <rect x="256" y="80" width="16" height="16" fill="rgb(20,50,110)"/>
  <rect x="48" y="96" width="16" height="16" fill="rgb(20,50,110)"/>
  <rect x="64" y="96" width="16" height="16" fill="rgb(100,210,255)"/>
  <rect x="80" y="96" width="16" height="16" fill="rgb(100,210,255)"/>
  <rect x="96" y="96" width="16" height="16" fill="rgb(100,210,255)"/>
  <rect x="112" y="96" width="16" height="16" fill="rgb(210,245,255)"/>
  <rect x="128" y="96" width="16" height="16" fill="rgb(100,210,255)"/>
  <rect x="144" y="96" width="16" height="16" fill="rgb(100,210,255)"/>
  <rect x="160" y="96" width="16" height="16" fill="rgb(255,200,50)"/>
  <rect x="176" y="96" width="16" height="16" fill="rgb(100,210,255)"/>
  <rect x="192" y="96" width="16" height="16" fill="rgb(100,210,255)"/>
  <rect x="208" y="96" width="16" height="16" fill="rgb(210,245,255)"/>
  <rect x="224" y="96" width="16" height="16" fill="rgb(100,210,255)"/>
  <rect x="240" y="96" width="16" height="16" fill="rgb(100,210,255)"/>
  <rect x="256" y="96" width="16" height="16" fill="rgb(100,210,255)"/>
  <rect x="272" y="96" width="16" height="16" fill="rgb(20,50,110)"/>
  <rect x="32" y="112" width="16" height="16" fill="rgb(100,210,255)"/>
  <rect x="48" y="112" width="16" height="16" fill="rgb(100,210,255)"/>
  <rect x="64" y="112" width="16" height="16" fill="rgb(100,210,255)"/>
  <rect x="80" y="112" width="16" height="16" fill="rgb(210,245,255)"/>
  <rect x="96" y="112" width="16" height="16" fill="rgb(100,210,255)"/>
  <rect x="112" y="112" width="16" height="16" fill="rgb(100,210,255)"/>
  <rect x="128" y="112" width="16" height="16" fill="rgb(100,210,255)"/>
  <rect x="144" y="112" width="16" height="16" fill="rgb(20,50,110)"/>
  <rect x="160" y="112" width="16" height="16" fill="rgb(255,200,50)"/>
  <rect x="176" y="112" width="16" height="16" fill="rgb(20,50,110)"/>
  <rect x="192" y="112" width="16" height="16" fill="rgb(100,210,255)"/>
  <rect x="208" y="112" width="16" height="16" fill="rgb(100,210,255)"/>
  <rect x="224" y="112" width="16" height="16" fill="rgb(100,210,255)"/>
  <rect x="240" y="112" width="16" height="16" fill="rgb(210,245,255)"/>
  <rect x="256" y="112" width="16" height="16" fill="rgb(100,210,255)"/>
  <rect x="272" y="112" width="16" height="16" fill="rgb(100,210,255)"/>
  <rect x="288" y="112" width="16" height="16" fill="rgb(100,210,255)"/>
  <rect x="16" y="128" width="16" height="16" fill="rgb(100,210,255)"/>
  <rect x="32" y="128" width="16" height="16" fill="rgb(100,210,255)"/>
  <rect x="48" y="128" width="16" height="16" fill="rgb(100,210,255)"/>
  <rect x="64" y="128" width="16" height="16" fill="rgb(35,80,160)"/>
  <rect x="80" y="128" width="16" height="16" fill="rgb(100,210,255)"/>
  <rect x="96" y="128" width="16" height="16" fill="rgb(100,210,255)"/>
  <rect x="112" y="128" width="16" height="16" fill="rgb(100,210,255)"/>
  <rect x="128" y="128" width="16" height="16" fill="rgb(210,245,255)"/>
  <rect x="144" y="128" width="16" height="16" fill="rgb(100,210,255)"/>
  <rect x="160" y="128" width="16" height="16" fill="rgb(255,200,50)"/>
  <rect x="176" y="128" width="16" height="16" fill="rgb(100,210,255)"/>
  <rect x="192" y="128" width="16" height="16" fill="rgb(210,245,255)"/>
  <rect x="208" y="128" width="16" height="16" fill="rgb(100,210,255)"/>
  <rect x="224" y="128" width="16" height="16" fill="rgb(100,210,255)"/>
  <rect x="240" y="128" width="16" height="16" fill="rgb(100,210,255)"/>
  <rect x="256" y="128" width="16" height="16" fill="rgb(35,80,160)"/>
  <rect x="272" y="128" width="16" height="16" fill="rgb(100,210,255)"/>
  <rect x="288" y="128" width="16" height="16" fill="rgb(100,210,255)"/>
  <rect x="304" y="128" width="16" height="16" fill="rgb(100,210,255)"/>
  <rect x="0" y="144" width="16" height="16" fill="rgb(210,245,255)"/>
  <rect x="16" y="144" width="16" height="16" fill="rgb(100,210,255)"/>
  <rect x="32" y="144" width="16" height="16" fill="rgb(100,210,255)"/>
  <rect x="48" y="144" width="16" height="16" fill="rgb(100,210,255)"/>
  <rect x="64" y="144" width="16" height="16" fill="rgb(100,210,255)"/>
  <rect x="80" y="144" width="16" height="16" fill="rgb(100,210,255)"/>
  <rect x="96" y="144" width="16" height="16" fill="rgb(100,210,255)"/>
  <rect x="112" y="144" width="16" height="16" fill="rgb(50,120,200)"/>
  <rect x="128" y="144" width="16" height="16" fill="rgb(35,80,160)"/>
  <rect x="144" y="144" width="16" height="16" fill="rgb(100,210,255)"/>
  <rect x="160" y="144" width="16" height="16" fill="rgb(255,200,50)"/>
  <rect x="176" y="144" width="16" height="16" fill="rgb(100,210,255)"/>
  <rect x="192" y="144" width="16" height="16" fill="rgb(35,80,160)"/>
  <rect x="208" y="144" width="16" height="16" fill="rgb(50,120,200)"/>
  <rect x="224" y="144" width="16" height="16" fill="rgb(100,210,255)"/>
  <rect x="240" y="144" width="16" height="16" fill="rgb(100,210,255)"/>
  <rect x="256" y="144" width="16" height="16" fill="rgb(100,210,255)"/>
  <rect x="272" y="144" width="16" height="16" fill="rgb(100,210,255)"/>
  <rect x="288" y="144" width="16" height="16" fill="rgb(100,210,255)"/>
  <rect x="304" y="144" width="16" height="16" fill="rgb(100,210,255)"/>
  <rect x="320" y="144" width="16" height="16" fill="rgb(210,245,255)"/>
  <rect x="0" y="160" width="16" height="16" fill="rgb(100,210,255)"/>
  <rect x="16" y="160" width="16" height="16" fill="rgb(100,210,255)"/>
  <rect x="32" y="160" width="16" height="16" fill="rgb(100,210,255)"/>
  <rect x="48" y="160" width="16" height="16" fill="rgb(35,80,160)"/>
  <rect x="64" y="160" width="16" height="16" fill="rgb(100,210,255)"/>
  <rect x="80" y="160" width="16" height="16" fill="rgb(100,210,255)"/>
  <rect x="96" y="160" width="16" height="16" fill="rgb(100,210,255)"/>
  <rect x="112" y="160" width="16" height="16" fill="rgb(100,210,255)"/>
  <rect x="128" y="160" width="16" height="16" fill="rgb(20,50,110)"/>
  <rect x="144" y="160" width="16" height="16" fill="rgb(100,210,255)"/>
  <rect x="160" y="160" width="16" height="16" fill="rgb(255,200,50)"/>
  <rect x="176" y="160" width="16" height="16" fill="rgb(100,210,255)"/>
  <rect x="192" y="160" width="16" height="16" fill="rgb(20,50,110)"/>
  <rect x="208" y="160" width="16" height="16" fill="rgb(100,210,255)"/>
  <rect x="224" y="160" width="16" height="16" fill="rgb(100,210,255)"/>
  <rect x="240" y="160" width="16" height="16" fill="rgb(100,210,255)"/>
  <rect x="256" y="160" width="16" height="16" fill="rgb(100,210,255)"/>
  <rect x="272" y="160" width="16" height="16" fill="rgb(35,80,160)"/>
  <rect x="288" y="160" width="16" height="16" fill="rgb(100,210,255)"/>
  <rect x="304" y="160" width="16" height="16" fill="rgb(100,210,255)"/>
  <rect x="320" y="160" width="16" height="16" fill="rgb(100,210,255)"/>
  <rect x="16" y="176" width="16" height="16" fill="rgb(100,210,255)"/>
  <rect x="32" y="176" width="16" height="16" fill="rgb(100,210,255)"/>
  <rect x="48" y="176" width="16" height="16" fill="rgb(100,210,255)"/>
  <rect x="64" y="176" width="16" height="16" fill="rgb(100,210,255)"/>
  <rect x="80" y="176" width="16" height="16" fill="rgb(100,210,255)"/>
  <rect x="96" y="176" width="16" height="16" fill="rgb(20,50,110)"/>
  <rect x="112" y="176" width="16" height="16" fill="rgb(100,210,255)"/>
  <rect x="128" y="176" width="16" height="16" fill="rgb(100,210,255)"/>
  <rect x="144" y="176" width="16" height="16" fill="rgb(100,210,255)"/>
  <rect x="160" y="176" width="16" height="16" fill="rgb(255,200,50)"/>
  <rect x="176" y="176" width="16" height="16" fill="rgb(100,210,255)"/>
  <rect x="192" y="176" width="16" height="16" fill="rgb(100,210,255)"/>
  <rect x="208" y="176" width="16" height="16" fill="rgb(100,210,255)"/>
  <rect x="224" y="176" width="16" height="16" fill="rgb(20,50,110)"/>
  <rect x="240" y="176" width="16" height="16" fill="rgb(100,210,255)"/>
  <rect x="256" y="176" width="16" height="16" fill="rgb(100,210,255)"/>
  <rect x="272" y="176" width="16" height="16" fill="rgb(100,210,255)"/>
  <rect x="288" y="176" width="16" height="16" fill="rgb(100,210,255)"/>
  <rect x="304" y="176" width="16" height="16" fill="rgb(100,210,255)"/>
  <rect x="32" y="192" width="16" height="16" fill="rgb(100,210,255)"/>
  <rect x="48" y="192" width="16" height="16" fill="rgb(100,210,255)"/>
  <rect x="64" y="192" width="16" height="16" fill="rgb(100,210,255)"/>
  <rect x="80" y="192" width="16" height="16" fill="rgb(100,210,255)"/>
  <rect x="96" y="192" width="16" height="16" fill="rgb(100,210,255)"/>
  <rect x="112" y="192" width="16" height="16" fill="rgb(35,80,160)"/>
  <rect x="128" y="192" width="16" height="16" fill="rgb(100,210,255)"/>
  <rect x="144" y="192" width="16" height="16" fill="rgb(100,210,255)"/>
  <rect x="160" y="192" width="16" height="16" fill="rgb(255,200,50)"/>
  <rect x="176" y="192" width="16" height="16" fill="rgb(100,210,255)"/>
  <rect x="192" y="192" width="16" height="16" fill="rgb(100,210,255)"/>
  <rect x="208" y="192" width="16" height="16" fill="rgb(35,80,160)"/>
  <rect x="224" y="192" width="16" height="16" fill="rgb(100,210,255)"/>
  <rect x="240" y="192" width="16" height="16" fill="rgb(100,210,255)"/>
  <rect x="256" y="192" width="16" height="16" fill="rgb(100,210,255)"/>
  <rect x="272" y="192" width="16" height="16" fill="rgb(100,210,255)"/>
  <rect x="288" y="192" width="16" height="16" fill="rgb(100,210,255)"/>
  <rect x="64" y="208" width="16" height="16" fill="rgb(100,210,255)"/>
  <rect x="80" y="208" width="16" height="16" fill="rgb(100,210,255)"/>
  <rect x="96" y="208" width="16" height="16" fill="rgb(35,80,160)"/>
  <rect x="112" y="208" width="16" height="16" fill="rgb(100,210,255)"/>
  <rect x="128" y="208" width="16" height="16" fill="rgb(100,210,255)"/>
  <rect x="160" y="208" width="16" height="16" fill="rgb(255,200,50)"/>
  <rect x="192" y="208" width="16" height="16" fill="rgb(100,210,255)"/>
  <rect x="208" y="208" width="16" height="16" fill="rgb(100,210,255)"/>
  <rect x="224" y="208" width="16" height="16" fill="rgb(35,80,160)"/>
  <rect x="240" y="208" width="16" height="16" fill="rgb(100,210,255)"/>
  <rect x="256" y="208" width="16" height="16" fill="rgb(100,210,255)"/>
  <rect x="144" y="224" width="16" height="16" fill="rgb(100,210,255)"/>
  <rect x="160" y="224" width="16" height="16" fill="rgb(255,200,50)"/>
  <rect x="176" y="224" width="16" height="16" fill="rgb(100,210,255)"/>
</svg>
